<?xml version="1.0" encoding="UTF-8"?>
<svg xmlns="http://www.w3.org/2000/svg" xmlns:xlink="http://www.w3.org/1999/xlink" width="500" height="500" viewBox="0 0 500 500">
<path fill-rule="nonzero" fill="rgb(0%, 0%, 0%)" fill-opacity="1" d="M 490 250 C 490 382.546875 382.546875 490 250 490 C 117.453125 490 10 382.546875 10 250 C 10 117.453125 117.453125 10 250 10 C 382.546875 10 490 117.453125 490 250 Z M 490 250 "/>
<path fill="none" stroke-width="9" stroke-linecap="round" stroke-linejoin="miter" stroke="rgb(100%, 100%, 100%)" stroke-opacity="1" stroke-miterlimit="10" d="M 250 250 L 275 250 "/>
<path fill="none" stroke-width="9" stroke-linecap="round" stroke-linejoin="miter" stroke="rgb(100%, 100%, 100%)" stroke-opacity="1" stroke-miterlimit="10" d="M 275 250 L 300 250 "/>
<path fill="none" stroke-width="9" stroke-linecap="round" stroke-linejoin="miter" stroke="rgb(100%, 100%, 100%)" stroke-opacity="1" stroke-miterlimit="10" d="M 300 250 L 312.5 271.652344 "/>
<path fill="none" stroke-width="9" stroke-linecap="round" stroke-linejoin="miter" stroke="rgb(100%, 100%, 100%)" stroke-opacity="1" stroke-miterlimit="10" d="M 312.5 271.652344 L 337.5 271.652344 "/>
<path fill="none" stroke-width="9" stroke-linecap="round" stroke-linejoin="miter" stroke="rgb(100%, 100%, 100%)" stroke-opacity="1" stroke-miterlimit="10" d="M 337.5 271.652344 L 362.5 271.652344 "/>
<path fill="none" stroke-width="9" stroke-linecap="round" stroke-linejoin="miter" stroke="rgb(100%, 100%, 100%)" stroke-opacity="1" stroke-miterlimit="10" d="M 362.5 271.652344 L 375 293.300781 "/>
<path fill="none" stroke-width="9" stroke-linecap="round" stroke-linejoin="miter" stroke="rgb(100%, 100%, 100%)" stroke-opacity="1" stroke-miterlimit="10" d="M 375 293.300781 L 362.5 271.652344 "/>
<path fill="none" stroke-width="9" stroke-linecap="round" stroke-linejoin="miter" stroke="rgb(100%, 100%, 100%)" stroke-opacity="1" stroke-miterlimit="10" d="M 362.5 271.652344 L 375 250 "/>
<path fill="none" stroke-width="9" stroke-linecap="round" stroke-linejoin="miter" stroke="rgb(100%, 100%, 100%)" stroke-opacity="1" stroke-miterlimit="10" d="M 375 250 L 387.5 228.347656 "/>
<path fill="none" stroke-width="9" stroke-linecap="round" stroke-linejoin="miter" stroke="rgb(100%, 100%, 100%)" stroke-opacity="1" stroke-miterlimit="10" d="M 387.5 228.347656 L 412.5 228.347656 "/>
<path fill="none" stroke-width="9" stroke-linecap="round" stroke-linejoin="miter" stroke="rgb(100%, 100%, 100%)" stroke-opacity="1" stroke-miterlimit="10" d="M 412.5 228.347656 L 437.5 228.347656 "/>
<path fill="none" stroke-width="9" stroke-linecap="round" stroke-linejoin="miter" stroke="rgb(100%, 100%, 100%)" stroke-opacity="1" stroke-miterlimit="10" d="M 250 250 L 262.5 271.652344 "/>
<path fill="none" stroke-width="9" stroke-linecap="round" stroke-linejoin="miter" stroke="rgb(100%, 100%, 100%)" stroke-opacity="1" stroke-miterlimit="10" d="M 262.5 271.652344 L 275 293.300781 "/>
<path fill="none" stroke-width="9" stroke-linecap="round" stroke-linejoin="miter" stroke="rgb(100%, 100%, 100%)" stroke-opacity="1" stroke-miterlimit="10" d="M 275 293.300781 L 262.5 314.953125 "/>
<path fill="none" stroke-width="9" stroke-linecap="round" stroke-linejoin="miter" stroke="rgb(100%, 100%, 100%)" stroke-opacity="1" stroke-miterlimit="10" d="M 262.5 314.953125 L 275 336.601562 "/>
<path fill="none" stroke-width="9" stroke-linecap="round" stroke-linejoin="miter" stroke="rgb(100%, 100%, 100%)" stroke-opacity="1" stroke-miterlimit="10" d="M 275 336.601562 L 287.5 358.253906 "/>
<path fill="none" stroke-width="9" stroke-linecap="round" stroke-linejoin="miter" stroke="rgb(100%, 100%, 100%)" stroke-opacity="1" stroke-miterlimit="10" d="M 287.5 358.253906 L 275 379.902344 "/>
<path fill="none" stroke-width="9" stroke-linecap="round" stroke-linejoin="miter" stroke="rgb(100%, 100%, 100%)" stroke-opacity="1" stroke-miterlimit="10" d="M 275 379.902344 L 287.5 358.253906 "/>
<path fill="none" stroke-width="9" stroke-linecap="round" stroke-linejoin="miter" stroke="rgb(100%, 100%, 100%)" stroke-opacity="1" stroke-miterlimit="10" d="M 287.5 358.253906 L 312.5 358.253906 "/>
<path fill="none" stroke-width="9" stroke-linecap="round" stroke-linejoin="miter" stroke="rgb(100%, 100%, 100%)" stroke-opacity="1" stroke-miterlimit="10" d="M 312.5 358.253906 L 337.5 358.253906 "/>
<path fill="none" stroke-width="9" stroke-linecap="round" stroke-linejoin="miter" stroke="rgb(100%, 100%, 100%)" stroke-opacity="1" stroke-miterlimit="10" d="M 337.5 358.253906 L 350 379.902344 "/>
<path fill="none" stroke-width="9" stroke-linecap="round" stroke-linejoin="miter" stroke="rgb(100%, 100%, 100%)" stroke-opacity="1" stroke-miterlimit="10" d="M 350 379.902344 L 362.5 401.554688 "/>
<path fill="none" stroke-width="9" stroke-linecap="round" stroke-linejoin="miter" stroke="rgb(100%, 100%, 100%)" stroke-opacity="1" stroke-miterlimit="10" d="M 250 250 L 237.5 271.652344 "/>
<path fill="none" stroke-width="9" stroke-linecap="round" stroke-linejoin="miter" stroke="rgb(100%, 100%, 100%)" stroke-opacity="1" stroke-miterlimit="10" d="M 237.5 271.652344 L 225 293.300781 "/>
<path fill="none" stroke-width="9" stroke-linecap="round" stroke-linejoin="miter" stroke="rgb(100%, 100%, 100%)" stroke-opacity="1" stroke-miterlimit="10" d="M 225 293.300781 L 200 293.300781 "/>
<path fill="none" stroke-width="9" stroke-linecap="round" stroke-linejoin="miter" stroke="rgb(100%, 100%, 100%)" stroke-opacity="1" stroke-miterlimit="10" d="M 200 293.300781 L 187.5 314.953125 "/>
<path fill="none" stroke-width="9" stroke-linecap="round" stroke-linejoin="miter" stroke="rgb(100%, 100%, 100%)" stroke-opacity="1" stroke-miterlimit="10" d="M 187.5 314.953125 L 175 336.601562 "/>
<path fill="none" stroke-width="9" stroke-linecap="round" stroke-linejoin="miter" stroke="rgb(100%, 100%, 100%)" stroke-opacity="1" stroke-miterlimit="10" d="M 175 336.601562 L 150 336.601562 "/>
<path fill="none" stroke-width="9" stroke-linecap="round" stroke-linejoin="miter" stroke="rgb(100%, 100%, 100%)" stroke-opacity="1" stroke-miterlimit="10" d="M 150 336.601562 L 175 336.601562 "/>
<path fill="none" stroke-width="9" stroke-linecap="round" stroke-linejoin="miter" stroke="rgb(100%, 100%, 100%)" stroke-opacity="1" stroke-miterlimit="10" d="M 175 336.601562 L 187.5 358.253906 "/>
<path fill="none" stroke-width="9" stroke-linecap="round" stroke-linejoin="miter" stroke="rgb(100%, 100%, 100%)" stroke-opacity="1" stroke-miterlimit="10" d="M 187.5 358.253906 L 200 379.902344 "/>
<path fill="none" stroke-width="9" stroke-linecap="round" stroke-linejoin="miter" stroke="rgb(100%, 100%, 100%)" stroke-opacity="1" stroke-miterlimit="10" d="M 200 379.902344 L 187.5 401.554688 "/>
<path fill="none" stroke-width="9" stroke-linecap="round" stroke-linejoin="miter" stroke="rgb(100%, 100%, 100%)" stroke-opacity="1" stroke-miterlimit="10" d="M 187.5 401.554688 L 175 423.207031 "/>
<path fill="none" stroke-width="9" stroke-linecap="round" stroke-linejoin="miter" stroke="rgb(100%, 100%, 100%)" stroke-opacity="1" stroke-miterlimit="10" d="M 250 250 L 225 250 "/>
<path fill="none" stroke-width="9" stroke-linecap="round" stroke-linejoin="miter" stroke="rgb(100%, 100%, 100%)" stroke-opacity="1" stroke-miterlimit="10" d="M 225 250 L 200 250 "/>
<path fill="none" stroke-width="9" stroke-linecap="round" stroke-linejoin="miter" stroke="rgb(100%, 100%, 100%)" stroke-opacity="1" stroke-miterlimit="10" d="M 200 250 L 187.5 228.347656 "/>
<path fill="none" stroke-width="9" stroke-linecap="round" stroke-linejoin="miter" stroke="rgb(100%, 100%, 100%)" stroke-opacity="1" stroke-miterlimit="10" d="M 187.5 228.347656 L 162.5 228.347656 "/>
<path fill="none" stroke-width="9" stroke-linecap="round" stroke-linejoin="miter" stroke="rgb(100%, 100%, 100%)" stroke-opacity="1" stroke-miterlimit="10" d="M 162.5 228.347656 L 137.5 228.347656 "/>
<path fill="none" stroke-width="9" stroke-linecap="round" stroke-linejoin="miter" stroke="rgb(100%, 100%, 100%)" stroke-opacity="1" stroke-miterlimit="10" d="M 137.5 228.347656 L 125 206.699219 "/>
<path fill="none" stroke-width="9" stroke-linecap="round" stroke-linejoin="miter" stroke="rgb(100%, 100%, 100%)" stroke-opacity="1" stroke-miterlimit="10" d="M 125 206.699219 L 137.5 228.347656 "/>
<path fill="none" stroke-width="9" stroke-linecap="round" stroke-linejoin="miter" stroke="rgb(100%, 100%, 100%)" stroke-opacity="1" stroke-miterlimit="10" d="M 137.5 228.347656 L 125 250 "/>
<path fill="none" stroke-width="9" stroke-linecap="round" stroke-linejoin="miter" stroke="rgb(100%, 100%, 100%)" stroke-opacity="1" stroke-miterlimit="10" d="M 125 250 L 112.5 271.652344 "/>
<path fill="none" stroke-width="9" stroke-linecap="round" stroke-linejoin="miter" stroke="rgb(100%, 100%, 100%)" stroke-opacity="1" stroke-miterlimit="10" d="M 112.5 271.652344 L 87.5 271.652344 "/>
<path fill="none" stroke-width="9" stroke-linecap="round" stroke-linejoin="miter" stroke="rgb(100%, 100%, 100%)" stroke-opacity="1" stroke-miterlimit="10" d="M 87.5 271.652344 L 62.5 271.652344 "/>
<path fill="none" stroke-width="9" stroke-linecap="round" stroke-linejoin="miter" stroke="rgb(100%, 100%, 100%)" stroke-opacity="1" stroke-miterlimit="10" d="M 250 250 L 237.5 228.347656 "/>
<path fill="none" stroke-width="9" stroke-linecap="round" stroke-linejoin="miter" stroke="rgb(100%, 100%, 100%)" stroke-opacity="1" stroke-miterlimit="10" d="M 237.5 228.347656 L 225 206.699219 "/>
<path fill="none" stroke-width="9" stroke-linecap="round" stroke-linejoin="miter" stroke="rgb(100%, 100%, 100%)" stroke-opacity="1" stroke-miterlimit="10" d="M 225 206.699219 L 237.5 185.046875 "/>
<path fill="none" stroke-width="9" stroke-linecap="round" stroke-linejoin="miter" stroke="rgb(100%, 100%, 100%)" stroke-opacity="1" stroke-miterlimit="10" d="M 237.5 185.046875 L 225 163.398438 "/>
<path fill="none" stroke-width="9" stroke-linecap="round" stroke-linejoin="miter" stroke="rgb(100%, 100%, 100%)" stroke-opacity="1" stroke-miterlimit="10" d="M 225 163.398438 L 212.5 141.746094 "/>
<path fill="none" stroke-width="9" stroke-linecap="round" stroke-linejoin="miter" stroke="rgb(100%, 100%, 100%)" stroke-opacity="1" stroke-miterlimit="10" d="M 212.5 141.746094 L 225 120.097656 "/>
<path fill="none" stroke-width="9" stroke-linecap="round" stroke-linejoin="miter" stroke="rgb(100%, 100%, 100%)" stroke-opacity="1" stroke-miterlimit="10" d="M 225 120.097656 L 212.5 141.746094 "/>
<path fill="none" stroke-width="9" stroke-linecap="round" stroke-linejoin="miter" stroke="rgb(100%, 100%, 100%)" stroke-opacity="1" stroke-miterlimit="10" d="M 212.5 141.746094 L 187.5 141.746094 "/>
<path fill="none" stroke-width="9" stroke-linecap="round" stroke-linejoin="miter" stroke="rgb(100%, 100%, 100%)" stroke-opacity="1" stroke-miterlimit="10" d="M 187.5 141.746094 L 162.5 141.746094 "/>
<path fill="none" stroke-width="9" stroke-linecap="round" stroke-linejoin="miter" stroke="rgb(100%, 100%, 100%)" stroke-opacity="1" stroke-miterlimit="10" d="M 162.5 141.746094 L 150 120.097656 "/>
<path fill="none" stroke-width="9" stroke-linecap="round" stroke-linejoin="miter" stroke="rgb(100%, 100%, 100%)" stroke-opacity="1" stroke-miterlimit="10" d="M 150 120.097656 L 137.5 98.445312 "/>
<path fill="none" stroke-width="9" stroke-linecap="round" stroke-linejoin="miter" stroke="rgb(100%, 100%, 100%)" stroke-opacity="1" stroke-miterlimit="10" d="M 250 250 L 262.5 228.347656 "/>
<path fill="none" stroke-width="9" stroke-linecap="round" stroke-linejoin="miter" stroke="rgb(100%, 100%, 100%)" stroke-opacity="1" stroke-miterlimit="10" d="M 262.5 228.347656 L 275 206.699219 "/>
<path fill="none" stroke-width="9" stroke-linecap="round" stroke-linejoin="miter" stroke="rgb(100%, 100%, 100%)" stroke-opacity="1" stroke-miterlimit="10" d="M 275 206.699219 L 300 206.699219 "/>
<path fill="none" stroke-width="9" stroke-linecap="round" stroke-linejoin="miter" stroke="rgb(100%, 100%, 100%)" stroke-opacity="1" stroke-miterlimit="10" d="M 300 206.699219 L 312.5 185.046875 "/>
<path fill="none" stroke-width="9" stroke-linecap="round" stroke-linejoin="miter" stroke="rgb(100%, 100%, 100%)" stroke-opacity="1" stroke-miterlimit="10" d="M 312.5 185.046875 L 325 163.398438 "/>
<path fill="none" stroke-width="9" stroke-linecap="round" stroke-linejoin="miter" stroke="rgb(100%, 100%, 100%)" stroke-opacity="1" stroke-miterlimit="10" d="M 325 163.398438 L 350 163.398438 "/>
<path fill="none" stroke-width="9" stroke-linecap="round" stroke-linejoin="miter" stroke="rgb(100%, 100%, 100%)" stroke-opacity="1" stroke-miterlimit="10" d="M 350 163.398438 L 325 163.398438 "/>
<path fill="none" stroke-width="9" stroke-linecap="round" stroke-linejoin="miter" stroke="rgb(100%, 100%, 100%)" stroke-opacity="1" stroke-miterlimit="10" d="M 325 163.398438 L 312.5 141.746094 "/>
<path fill="none" stroke-width="9" stroke-linecap="round" stroke-linejoin="miter" stroke="rgb(100%, 100%, 100%)" stroke-opacity="1" stroke-miterlimit="10" d="M 312.5 141.746094 L 300 120.097656 "/>
<path fill="none" stroke-width="9" stroke-linecap="round" stroke-linejoin="miter" stroke="rgb(100%, 100%, 100%)" stroke-opacity="1" stroke-miterlimit="10" d="M 300 120.097656 L 312.5 98.445312 "/>
<path fill="none" stroke-width="9" stroke-linecap="round" stroke-linejoin="miter" stroke="rgb(100%, 100%, 100%)" stroke-opacity="1" stroke-miterlimit="10" d="M 312.5 98.445312 L 325 76.792969 "/>
<path fill-rule="nonzero" fill="rgb(58.4%, 34.5%, 69.8%)" fill-opacity="1" d="M 391.816406 293.300781 C 391.816406 302.589844 384.289062 310.117188 375 310.117188 C 365.710938 310.117188 358.183594 302.589844 358.183594 293.300781 C 358.183594 284.015625 365.710938 276.484375 375 276.484375 C 384.289062 276.484375 391.816406 284.015625 391.816406 293.300781 Z M 391.816406 293.300781 "/>
<path fill-rule="nonzero" fill="rgb(79.6%, 23.5%, 20%)" fill-opacity="1" d="M 460.640625 228.347656 C 460.640625 241.128906 450.28125 251.488281 437.5 251.488281 C 424.71875 251.488281 414.359375 241.128906 414.359375 228.347656 C 414.359375 215.570312 424.71875 205.210938 437.5 205.210938 C 450.28125 205.210938 460.640625 215.570312 460.640625 228.347656 Z M 460.640625 228.347656 "/>
<path fill-rule="nonzero" fill="rgb(25.1%, 38.8%, 84.7%)" fill-opacity="1" d="M 291.816406 379.902344 C 291.816406 389.191406 284.289062 396.71875 275 396.71875 C 265.710938 396.71875 258.183594 389.191406 258.183594 379.902344 C 258.183594 370.617188 265.710938 363.085938 275 363.085938 C 284.289062 363.085938 291.816406 370.617188 291.816406 379.902344 Z M 291.816406 379.902344 "/>
<path fill-rule="nonzero" fill="rgb(22%, 59.6%, 14.9%)" fill-opacity="1" d="M 385.640625 401.554688 C 385.640625 414.335938 375.28125 424.695312 362.5 424.695312 C 349.71875 424.695312 339.359375 414.335938 339.359375 401.554688 C 339.359375 388.773438 349.71875 378.414062 362.5 378.414062 C 375.28125 378.414062 385.640625 388.773438 385.640625 401.554688 Z M 385.640625 401.554688 "/>
<path fill-rule="nonzero" fill="rgb(58.4%, 34.5%, 69.8%)" fill-opacity="1" d="M 166.816406 336.601562 C 166.816406 345.890625 159.289062 353.417969 150 353.417969 C 140.710938 353.417969 133.183594 345.890625 133.183594 336.601562 C 133.183594 327.316406 140.710938 319.785156 150 319.785156 C 159.289062 319.785156 166.816406 327.316406 166.816406 336.601562 Z M 166.816406 336.601562 "/>
<path fill-rule="nonzero" fill="rgb(79.6%, 23.5%, 20%)" fill-opacity="1" d="M 198.140625 423.207031 C 198.140625 435.984375 187.78125 446.34375 175 446.34375 C 162.21875 446.34375 151.859375 435.984375 151.859375 423.207031 C 151.859375 410.425781 162.21875 400.066406 175 400.066406 C 187.78125 400.066406 198.140625 410.425781 198.140625 423.207031 Z M 198.140625 423.207031 "/>
<path fill-rule="nonzero" fill="rgb(25.1%, 38.8%, 84.7%)" fill-opacity="1" d="M 141.816406 206.699219 C 141.816406 215.984375 134.289062 223.515625 125 223.515625 C 115.710938 223.515625 108.183594 215.984375 108.183594 206.699219 C 108.183594 197.410156 115.710938 189.882812 125 189.882812 C 134.289062 189.882812 141.816406 197.410156 141.816406 206.699219 Z M 141.816406 206.699219 "/>
<path fill-rule="nonzero" fill="rgb(22%, 59.6%, 14.9%)" fill-opacity="1" d="M 85.640625 271.652344 C 85.640625 284.429688 75.28125 294.789062 62.5 294.789062 C 49.71875 294.789062 39.359375 284.429688 39.359375 271.652344 C 39.359375 258.871094 49.71875 248.511719 62.5 248.511719 C 75.28125 248.511719 85.640625 258.871094 85.640625 271.652344 Z M 85.640625 271.652344 "/>
<path fill-rule="nonzero" fill="rgb(58.4%, 34.5%, 69.8%)" fill-opacity="1" d="M 241.816406 120.097656 C 241.816406 129.382812 234.289062 136.914062 225 136.914062 C 215.710938 136.914062 208.183594 129.382812 208.183594 120.097656 C 208.183594 110.808594 215.710938 103.28125 225 103.28125 C 234.289062 103.28125 241.816406 110.808594 241.816406 120.097656 Z M 241.816406 120.097656 "/>
<path fill-rule="nonzero" fill="rgb(79.6%, 23.5%, 20%)" fill-opacity="1" d="M 160.640625 98.445312 C 160.640625 111.226562 150.28125 121.585938 137.5 121.585938 C 124.71875 121.585938 114.359375 111.226562 114.359375 98.445312 C 114.359375 85.664062 124.71875 75.304688 137.5 75.304688 C 150.28125 75.304688 160.640625 85.664062 160.640625 98.445312 Z M 160.640625 98.445312 "/>
<path fill-rule="nonzero" fill="rgb(25.1%, 38.8%, 84.7%)" fill-opacity="1" d="M 366.816406 163.398438 C 366.816406 172.683594 359.289062 180.214844 350 180.214844 C 340.710938 180.214844 333.183594 172.683594 333.183594 163.398438 C 333.183594 154.109375 340.710938 146.582031 350 146.582031 C 359.289062 146.582031 366.816406 154.109375 366.816406 163.398438 Z M 366.816406 163.398438 "/>
<path fill-rule="nonzero" fill="rgb(22%, 59.6%, 14.9%)" fill-opacity="1" d="M 348.140625 76.792969 C 348.140625 89.574219 337.78125 99.933594 325 99.933594 C 312.21875 99.933594 301.859375 89.574219 301.859375 76.792969 C 301.859375 64.015625 312.21875 53.65625 325 53.65625 C 337.78125 53.65625 348.140625 64.015625 348.140625 76.792969 Z M 348.140625 76.792969 "/>
</svg>
