<?xml version="1.0" encoding="UTF-8" standalone="no"?>
<!DOCTYPE svg PUBLIC "-//W3C//DTD SVG 1.1//EN" "http://www.w3.org/Graphics/SVG/1.1/DTD/svg11.dtd">
<svg width="100%" height="100%" viewBox="0 0 800 160" version="1.1" xmlns="http://www.w3.org/2000/svg" xmlns:xlink="http://www.w3.org/1999/xlink" xml:space="preserve" xmlns:serif="http://www.serif.com/" style="fill-rule:evenodd;clip-rule:evenodd;stroke-linecap:round;stroke-miterlimit:10;">
    <g transform="matrix(0.294789,0,0,0.294789,77.969,80)">
        <g transform="matrix(1,0,0,1,-250,-250)">
            <g id="surface624">
                <g>
                    <g>
                        <clipPath id="_clip1">
                            <path d="M495,250C495,385.309 385.309,495 250,495C114.691,495 5,385.309 5,250C5,114.691 114.691,5 250,5C385.309,5 495,114.691 495,250"/>
                        </clipPath>
                        <g clip-path="url(#_clip1)">
                            <rect x="0" y="0" width="500" height="500" style="fill-opacity:0.9;"/>
                        </g>
                    </g>
                </g>
                <g>
                    <g>
                        <clipPath id="_clip2">
                            <path d="M495,250C495,385.309 385.309,495 250,495C114.691,495 5,385.309 5,250C5,114.691 114.691,5 250,5C385.309,5 495,114.691 495,250"/>
                        </clipPath>
                        <g clip-path="url(#_clip2)">
                            <path d="M260,390C260,395.523 255.523,400 250,400C244.477,400 240,395.523 240,390C240,384.477 244.477,380 250,380C255.523,380 260,384.477 260,390" style="fill:rgb(148,87,177);fill-rule:nonzero;"/>
                        </g>
                    </g>
                </g>
                <g>
                    <g>
                        <clipPath id="_clip3">
                            <path d="M495,250C495,385.309 385.309,495 250,495C114.691,495 5,385.309 5,250C5,114.691 114.691,5 250,5C385.309,5 495,114.691 495,250"/>
                        </clipPath>
                        <g clip-path="url(#_clip3)">
                            <path d="M250,390L229.535,323.059" style="fill:none;fill-rule:nonzero;stroke:rgb(254,254,254);stroke-width:8px;"/>
                        </g>
                    </g>
                </g>
                <g>
                    <g>
                        <clipPath id="_clip4">
                            <path d="M495,250C495,385.309 385.309,495 250,495C114.691,495 5,385.309 5,250C5,114.691 114.691,5 250,5C385.309,5 495,114.691 495,250"/>
                        </clipPath>
                        <g clip-path="url(#_clip4)">
                            <path d="M239.535,323.059C239.535,328.582 235.059,333.059 229.535,333.059C224.012,333.059 219.535,328.582 219.535,323.059C219.535,317.535 224.012,313.059 229.535,313.059C235.059,313.059 239.535,317.535 239.535,323.059" style="fill:rgb(202,59,51);fill-rule:nonzero;"/>
                            <path d="M239.535,323.059C239.535,328.582 235.059,333.059 229.535,333.059C224.012,333.059 219.535,328.582 219.535,323.059C219.535,317.535 224.012,313.059 229.535,313.059C235.059,313.059 239.535,317.535 239.535,323.059" style="fill:rgb(56,151,37);fill-rule:nonzero;"/>
                        </g>
                    </g>
                </g>
                <g>
                    <g>
                        <clipPath id="_clip5">
                            <path d="M495,250C495,385.309 385.309,495 250,495C114.691,495 5,385.309 5,250C5,114.691 114.691,5 250,5C385.309,5 495,114.691 495,250"/>
                        </clipPath>
                        <g clip-path="url(#_clip5)">
                            <path d="M229.535,323.059L190.391,265.027" style="fill:none;fill-rule:nonzero;stroke:rgb(254,254,254);stroke-width:8px;"/>
                        </g>
                    </g>
                </g>
                <g>
                    <g>
                        <clipPath id="_clip6">
                            <path d="M495,250C495,385.309 385.309,495 250,495C114.691,495 5,385.309 5,250C5,114.691 114.691,5 250,5C385.309,5 495,114.691 495,250"/>
                        </clipPath>
                        <g clip-path="url(#_clip6)">
                            <path d="M200.391,265.027C200.391,270.551 195.914,275.027 190.391,275.027C184.867,275.027 180.391,270.551 180.391,265.027C180.391,259.504 184.867,255.027 190.391,255.027C195.914,255.027 200.391,259.504 200.391,265.027" style="fill:rgb(56,151,37);fill-rule:nonzero;"/>
                            <path d="M200.391,265.027C200.391,270.551 195.914,275.027 190.391,275.027C184.867,275.027 180.391,270.551 180.391,265.027C180.391,259.504 184.867,255.027 190.391,255.027C195.914,255.027 200.391,259.504 200.391,265.027" style="fill:rgb(202,59,51);fill-rule:nonzero;"/>
                        </g>
                    </g>
                </g>
                <g>
                    <g>
                        <clipPath id="_clip7">
                            <path d="M495,250C495,385.309 385.309,495 250,495C114.691,495 5,385.309 5,250C5,114.691 114.691,5 250,5C385.309,5 495,114.691 495,250"/>
                        </clipPath>
                        <g clip-path="url(#_clip7)">
                            <path d="M190.391,265.027L135.992,220.973" style="fill:none;fill-rule:nonzero;stroke:rgb(254,254,254);stroke-width:8px;"/>
                        </g>
                    </g>
                </g>
                <g>
                    <g>
                        <clipPath id="_clip8">
                            <path d="M495,250C495,385.309 385.309,495 250,495C114.691,495 5,385.309 5,250C5,114.691 114.691,5 250,5C385.309,5 495,114.691 495,250"/>
                        </clipPath>
                        <g clip-path="url(#_clip8)">
                            <path d="M145.992,220.973C145.992,226.496 141.512,230.973 135.992,230.973C130.469,230.973 125.992,226.496 125.992,220.973C125.992,215.449 130.469,210.973 135.992,210.973C141.512,210.973 145.992,215.449 145.992,220.973" style="fill:rgb(202,59,51);fill-rule:nonzero;"/>
                            <path d="M145.992,220.973C145.992,226.496 141.512,230.973 135.992,230.973C130.469,230.973 125.992,226.496 125.992,220.973C125.992,215.449 130.469,210.973 135.992,210.973C141.512,210.973 145.992,215.449 145.992,220.973" style="fill:rgb(202,59,51);fill-rule:nonzero;"/>
                        </g>
                    </g>
                </g>
                <g>
                    <g>
                        <clipPath id="_clip9">
                            <path d="M495,250C495,385.309 385.309,495 250,495C114.691,495 5,385.309 5,250C5,114.691 114.691,5 250,5C385.309,5 495,114.691 495,250"/>
                        </clipPath>
                        <g clip-path="url(#_clip9)">
                            <path d="M135.992,220.973L71.086,194.75" style="fill:none;fill-rule:nonzero;stroke:rgb(254,254,254);stroke-width:8px;"/>
                        </g>
                    </g>
                </g>
                <g>
                    <g>
                        <clipPath id="_clip10">
                            <path d="M495,250C495,385.309 385.309,495 250,495C114.691,495 5,385.309 5,250C5,114.691 114.691,5 250,5C385.309,5 495,114.691 495,250"/>
                        </clipPath>
                        <g clip-path="url(#_clip10)">
                            <path d="M81.086,194.75C81.086,200.273 76.609,204.75 71.086,204.75C65.566,204.75 61.086,200.273 61.086,194.75C61.086,189.227 65.566,184.75 71.086,184.75C76.609,184.75 81.086,189.227 81.086,194.75" style="fill:rgb(148,87,177);fill-rule:nonzero;"/>
                            <path d="M81.086,194.75C81.086,200.273 76.609,204.75 71.086,204.75C65.566,204.75 61.086,200.273 61.086,194.75C61.086,189.227 65.566,184.75 71.086,184.75C76.609,184.75 81.086,189.227 81.086,194.75" style="fill:rgb(202,59,51);fill-rule:nonzero;"/>
                        </g>
                    </g>
                </g>
                <g>
                    <g>
                        <clipPath id="_clip11">
                            <path d="M495,250C495,385.309 385.309,495 250,495C114.691,495 5,385.309 5,250C5,114.691 114.691,5 250,5C385.309,5 495,114.691 495,250"/>
                        </clipPath>
                        <g clip-path="url(#_clip11)">
                            <path d="M135.992,220.973L96.848,162.941" style="fill:none;fill-rule:nonzero;stroke:rgb(254,254,254);stroke-width:8px;"/>
                        </g>
                    </g>
                </g>
                <g>
                    <g>
                        <clipPath id="_clip12">
                            <path d="M495,250C495,385.309 385.309,495 250,495C114.691,495 5,385.309 5,250C5,114.691 114.691,5 250,5C385.309,5 495,114.691 495,250"/>
                        </clipPath>
                        <g clip-path="url(#_clip12)">
                            <path d="M106.848,162.941C106.848,168.465 102.371,172.941 96.848,172.941C91.324,172.941 86.848,168.465 86.848,162.941C86.848,157.418 91.324,152.941 96.848,152.941C102.371,152.941 106.848,157.418 106.848,162.941" style="fill:rgb(148,87,177);fill-rule:nonzero;"/>
                            <path d="M106.848,162.941C106.848,168.465 102.371,172.941 96.848,172.941C91.324,172.941 86.848,168.465 86.848,162.941C86.848,157.418 91.324,152.941 96.848,152.941C102.371,152.941 106.848,157.418 106.848,162.941" style="fill:rgb(148,87,177);fill-rule:nonzero;"/>
                        </g>
                    </g>
                </g>
                <g>
                    <g>
                        <clipPath id="_clip13">
                            <path d="M495,250C495,385.309 385.309,495 250,495C114.691,495 5,385.309 5,250C5,114.691 114.691,5 250,5C385.309,5 495,114.691 495,250"/>
                        </clipPath>
                        <g clip-path="url(#_clip13)">
                            <path d="M190.391,265.027L169.926,198.086" style="fill:none;fill-rule:nonzero;stroke:rgb(254,254,254);stroke-width:8px;"/>
                        </g>
                    </g>
                </g>
                <g>
                    <g>
                        <clipPath id="_clip14">
                            <path d="M495,250C495,385.309 385.309,495 250,495C114.691,495 5,385.309 5,250C5,114.691 114.691,5 250,5C385.309,5 495,114.691 495,250"/>
                        </clipPath>
                        <g clip-path="url(#_clip14)">
                            <path d="M179.926,198.086C179.926,203.609 175.449,208.086 169.926,208.086C164.402,208.086 159.926,203.609 159.926,198.086C159.926,192.563 164.402,188.086 169.926,188.086C175.449,188.086 179.926,192.563 179.926,198.086" style="fill:rgb(56,151,37);fill-rule:nonzero;"/>
                            <path d="M179.926,198.086C179.926,203.609 175.449,208.086 169.926,208.086C164.402,208.086 159.926,203.609 159.926,198.086C159.926,192.563 164.402,188.086 169.926,188.086C175.449,188.086 179.926,192.563 179.926,198.086" style="fill:rgb(202,59,51);fill-rule:nonzero;"/>
                        </g>
                    </g>
                </g>
                <g>
                    <g>
                        <clipPath id="_clip15">
                            <path d="M495,250C495,385.309 385.309,495 250,495C114.691,495 5,385.309 5,250C5,114.691 114.691,5 250,5C385.309,5 495,114.691 495,250"/>
                        </clipPath>
                        <g clip-path="url(#_clip15)">
                            <path d="M169.926,198.086L130.781,140.051" style="fill:none;fill-rule:nonzero;stroke:rgb(254,254,254);stroke-width:8px;"/>
                        </g>
                    </g>
                </g>
                <g>
                    <g>
                        <clipPath id="_clip16">
                            <path d="M495,250C495,385.309 385.309,495 250,495C114.691,495 5,385.309 5,250C5,114.691 114.691,5 250,5C385.309,5 495,114.691 495,250"/>
                        </clipPath>
                        <g clip-path="url(#_clip16)">
                            <path d="M140.781,140.051C140.781,145.574 136.305,150.051 130.781,150.051C125.258,150.051 120.781,145.574 120.781,140.051C120.781,134.527 125.258,130.051 130.781,130.051C136.305,130.051 140.781,134.527 140.781,140.051" style="fill:rgb(148,87,177);fill-rule:nonzero;"/>
                            <path d="M140.781,140.051C140.781,145.574 136.305,150.051 130.781,150.051C125.258,150.051 120.781,145.574 120.781,140.051C120.781,134.527 125.258,130.051 130.781,130.051C136.305,130.051 140.781,134.527 140.781,140.051" style="fill:rgb(202,59,51);fill-rule:nonzero;"/>
                        </g>
                    </g>
                </g>
                <g>
                    <clipPath id="_clip17">
                        <rect x="165" y="124" width="9" height="79"/>
                    </clipPath>
                    <g clip-path="url(#_clip17)">
                        <g>
                            <clipPath id="_clip18">
                                <path d="M495,250C495,385.309 385.309,495 250,495C114.691,495 5,385.309 5,250C5,114.691 114.691,5 250,5C385.309,5 495,114.691 495,250"/>
                            </clipPath>
                            <g clip-path="url(#_clip18)">
                                <path d="M169.926,198.086L169.926,128.086" style="fill:none;fill-rule:nonzero;stroke:rgb(254,254,254);stroke-width:8px;"/>
                            </g>
                        </g>
                    </g>
                </g>
                <g>
                    <g>
                        <clipPath id="_clip19">
                            <path d="M495,250C495,385.309 385.309,495 250,495C114.691,495 5,385.309 5,250C5,114.691 114.691,5 250,5C385.309,5 495,114.691 495,250"/>
                        </clipPath>
                        <g clip-path="url(#_clip19)">
                            <path d="M179.926,128.086C179.926,133.609 175.449,138.086 169.926,138.086C164.402,138.086 159.926,133.609 159.926,128.086C159.926,122.563 164.402,118.086 169.926,118.086C175.449,118.086 179.926,122.563 179.926,128.086" style="fill:rgb(56,151,37);fill-rule:nonzero;"/>
                            <path d="M179.926,128.086C179.926,133.609 175.449,138.086 169.926,138.086C164.402,138.086 159.926,133.609 159.926,128.086C159.926,122.563 164.402,118.086 169.926,118.086C175.449,118.086 179.926,122.563 179.926,128.086" style="fill:rgb(202,59,51);fill-rule:nonzero;"/>
                        </g>
                    </g>
                </g>
                <g>
                    <clipPath id="_clip20">
                        <rect x="225" y="249" width="9" height="79"/>
                    </clipPath>
                    <g clip-path="url(#_clip20)">
                        <g>
                            <clipPath id="_clip21">
                                <path d="M495,250C495,385.309 385.309,495 250,495C114.691,495 5,385.309 5,250C5,114.691 114.691,5 250,5C385.309,5 495,114.691 495,250"/>
                            </clipPath>
                            <g clip-path="url(#_clip21)">
                                <path d="M229.535,323.059L229.535,253.059" style="fill:none;fill-rule:nonzero;stroke:rgb(254,254,254);stroke-width:8px;"/>
                            </g>
                        </g>
                    </g>
                </g>
                <g>
                    <g>
                        <clipPath id="_clip22">
                            <path d="M495,250C495,385.309 385.309,495 250,495C114.691,495 5,385.309 5,250C5,114.691 114.691,5 250,5C385.309,5 495,114.691 495,250"/>
                        </clipPath>
                        <g clip-path="url(#_clip22)">
                            <path d="M239.535,253.059C239.535,258.582 235.059,263.059 229.535,263.059C224.012,263.059 219.535,258.582 219.535,253.059C219.535,247.535 224.012,243.059 229.535,243.059C235.059,243.059 239.535,247.535 239.535,253.059" style="fill:rgb(148,87,177);fill-rule:nonzero;"/>
                            <path d="M239.535,253.059C239.535,258.582 235.059,263.059 229.535,263.059C224.012,263.059 219.535,258.582 219.535,253.059C219.535,247.535 224.012,243.059 229.535,243.059C235.059,243.059 239.535,247.535 239.535,253.059" style="fill:rgb(202,59,51);fill-rule:nonzero;"/>
                        </g>
                    </g>
                </g>
                <g>
                    <g>
                        <clipPath id="_clip23">
                            <path d="M495,250C495,385.309 385.309,495 250,495C114.691,495 5,385.309 5,250C5,114.691 114.691,5 250,5C385.309,5 495,114.691 495,250"/>
                        </clipPath>
                        <g clip-path="url(#_clip23)">
                            <path d="M229.535,253.059L209.066,186.117" style="fill:none;fill-rule:nonzero;stroke:rgb(254,254,254);stroke-width:8px;"/>
                        </g>
                    </g>
                </g>
                <g>
                    <g>
                        <clipPath id="_clip24">
                            <path d="M495,250C495,385.309 385.309,495 250,495C114.691,495 5,385.309 5,250C5,114.691 114.691,5 250,5C385.309,5 495,114.691 495,250"/>
                        </clipPath>
                        <g clip-path="url(#_clip24)">
                            <path d="M219.066,186.117C219.066,191.641 214.59,196.117 209.066,196.117C203.547,196.117 199.066,191.641 199.066,186.117C199.066,180.594 203.547,176.117 209.066,176.117C214.59,176.117 219.066,180.594 219.066,186.117" style="fill:rgb(202,59,51);fill-rule:nonzero;"/>
                            <path d="M219.066,186.117C219.066,191.641 214.59,196.117 209.066,196.117C203.547,196.117 199.066,191.641 199.066,186.117C199.066,180.594 203.547,176.117 209.066,176.117C214.59,176.117 219.066,180.594 219.066,186.117" style="fill:rgb(148,87,177);fill-rule:nonzero;"/>
                        </g>
                    </g>
                </g>
                <g>
                    <g>
                        <clipPath id="_clip25">
                            <path d="M495,250C495,385.309 385.309,495 250,495C114.691,495 5,385.309 5,250C5,114.691 114.691,5 250,5C385.309,5 495,114.691 495,250"/>
                        </clipPath>
                        <g clip-path="url(#_clip25)">
                            <path d="M209.066,186.117L169.926,128.086" style="fill:none;fill-rule:nonzero;stroke:rgb(254,254,254);stroke-width:8px;"/>
                        </g>
                    </g>
                </g>
                <g>
                    <g>
                        <clipPath id="_clip26">
                            <path d="M495,250C495,385.309 385.309,495 250,495C114.691,495 5,385.309 5,250C5,114.691 114.691,5 250,5C385.309,5 495,114.691 495,250"/>
                        </clipPath>
                        <g clip-path="url(#_clip26)">
                            <path d="M179.926,128.086C179.926,133.609 175.449,138.086 169.926,138.086C164.402,138.086 159.926,133.609 159.926,128.086C159.926,122.563 164.402,118.086 169.926,118.086C175.449,118.086 179.926,122.563 179.926,128.086" style="fill:rgb(148,87,177);fill-rule:nonzero;"/>
                            <path d="M179.926,128.086C179.926,133.609 175.449,138.086 169.926,138.086C164.402,138.086 159.926,133.609 159.926,128.086C159.926,122.563 164.402,118.086 169.926,118.086C175.449,118.086 179.926,122.563 179.926,128.086" style="fill:rgb(56,151,37);fill-rule:nonzero;"/>
                        </g>
                    </g>
                </g>
                <g>
                    <clipPath id="_clip27">
                        <rect x="205" y="112" width="9" height="79"/>
                    </clipPath>
                    <g clip-path="url(#_clip27)">
                        <g>
                            <clipPath id="_clip28">
                                <path d="M495,250C495,385.309 385.309,495 250,495C114.691,495 5,385.309 5,250C5,114.691 114.691,5 250,5C385.309,5 495,114.691 495,250"/>
                            </clipPath>
                            <g clip-path="url(#_clip28)">
                                <path d="M209.066,186.117L209.066,116.117" style="fill:none;fill-rule:nonzero;stroke:rgb(254,254,254);stroke-width:8px;"/>
                            </g>
                        </g>
                    </g>
                </g>
                <g>
                    <g>
                        <clipPath id="_clip29">
                            <path d="M495,250C495,385.309 385.309,495 250,495C114.691,495 5,385.309 5,250C5,114.691 114.691,5 250,5C385.309,5 495,114.691 495,250"/>
                        </clipPath>
                        <g clip-path="url(#_clip29)">
                            <path d="M219.066,116.117C219.066,121.641 214.59,126.117 209.066,126.117C203.547,126.117 199.066,121.641 199.066,116.117C199.066,110.594 203.547,106.117 209.066,106.117C214.59,106.117 219.066,110.594 219.066,116.117" style="fill:rgb(202,59,51);fill-rule:nonzero;"/>
                            <path d="M219.066,116.117C219.066,121.641 214.59,126.117 209.066,126.117C203.547,126.117 199.066,121.641 199.066,116.117C199.066,110.594 203.547,106.117 209.066,106.117C214.59,106.117 219.066,110.594 219.066,116.117" style="fill:rgb(56,151,37);fill-rule:nonzero;"/>
                        </g>
                    </g>
                </g>
                <g>
                    <g>
                        <clipPath id="_clip30">
                            <path d="M495,250C495,385.309 385.309,495 250,495C114.691,495 5,385.309 5,250C5,114.691 114.691,5 250,5C385.309,5 495,114.691 495,250"/>
                        </clipPath>
                        <g clip-path="url(#_clip30)">
                            <path d="M229.535,253.059L250,186.117" style="fill:none;fill-rule:nonzero;stroke:rgb(254,254,254);stroke-width:8px;"/>
                        </g>
                    </g>
                </g>
                <g>
                    <g>
                        <clipPath id="_clip31">
                            <path d="M495,250C495,385.309 385.309,495 250,495C114.691,495 5,385.309 5,250C5,114.691 114.691,5 250,5C385.309,5 495,114.691 495,250"/>
                        </clipPath>
                        <g clip-path="url(#_clip31)">
                            <path d="M260,186.117C260,191.641 255.523,196.117 250,196.117C244.477,196.117 240,191.641 240,186.117C240,180.594 244.477,176.117 250,176.117C255.523,176.117 260,180.594 260,186.117" style="fill:rgb(148,87,177);fill-rule:nonzero;"/>
                            <path d="M260,186.117C260,191.641 255.523,196.117 250,196.117C244.477,196.117 240,191.641 240,186.117C240,180.594 244.477,176.117 250,176.117C255.523,176.117 260,180.594 260,186.117" style="fill:rgb(202,59,51);fill-rule:nonzero;"/>
                        </g>
                    </g>
                </g>
                <g>
                    <clipPath id="_clip32">
                        <rect x="246" y="112" width="8" height="79"/>
                    </clipPath>
                    <g clip-path="url(#_clip32)">
                        <g>
                            <clipPath id="_clip33">
                                <path d="M495,250C495,385.309 385.309,495 250,495C114.691,495 5,385.309 5,250C5,114.691 114.691,5 250,5C385.309,5 495,114.691 495,250"/>
                            </clipPath>
                            <g clip-path="url(#_clip33)">
                                <path d="M250,186.117L250,116.117" style="fill:none;fill-rule:nonzero;stroke:rgb(254,254,254);stroke-width:8px;"/>
                            </g>
                        </g>
                    </g>
                </g>
                <g>
                    <g>
                        <clipPath id="_clip34">
                            <path d="M495,250C495,385.309 385.309,495 250,495C114.691,495 5,385.309 5,250C5,114.691 114.691,5 250,5C385.309,5 495,114.691 495,250"/>
                        </clipPath>
                        <g clip-path="url(#_clip34)">
                            <path d="M260,116.117C260,121.641 255.523,126.117 250,126.117C244.477,126.117 240,121.641 240,116.117C240,110.594 244.477,106.117 250,106.117C255.523,106.117 260,110.594 260,116.117" style="fill:rgb(202,59,51);fill-rule:nonzero;"/>
                            <path d="M260,116.117C260,121.641 255.523,126.117 250,126.117C244.477,126.117 240,121.641 240,116.117C240,110.594 244.477,106.117 250,106.117C255.523,106.117 260,110.594 260,116.117" style="fill:rgb(202,59,51);fill-rule:nonzero;"/>
                        </g>
                    </g>
                </g>
                <g>
                    <g>
                        <clipPath id="_clip35">
                            <path d="M495,250C495,385.309 385.309,495 250,495C114.691,495 5,385.309 5,250C5,114.691 114.691,5 250,5C385.309,5 495,114.691 495,250"/>
                        </clipPath>
                        <g clip-path="url(#_clip35)">
                            <path d="M250,186.117L289.145,128.086" style="fill:none;fill-rule:nonzero;stroke:rgb(254,254,254);stroke-width:8px;"/>
                        </g>
                    </g>
                </g>
                <g>
                    <g>
                        <clipPath id="_clip36">
                            <path d="M495,250C495,385.309 385.309,495 250,495C114.691,495 5,385.309 5,250C5,114.691 114.691,5 250,5C385.309,5 495,114.691 495,250"/>
                        </clipPath>
                        <g clip-path="url(#_clip36)">
                            <path d="M299.145,128.086C299.145,133.609 294.668,138.086 289.145,138.086C283.621,138.086 279.145,133.609 279.145,128.086C279.145,122.563 283.621,118.086 289.145,118.086C294.668,118.086 299.145,122.563 299.145,128.086" style="fill:rgb(56,151,37);fill-rule:nonzero;"/>
                            <path d="M299.145,128.086C299.145,133.609 294.668,138.086 289.145,138.086C283.621,138.086 279.145,133.609 279.145,128.086C279.145,122.563 283.621,118.086 289.145,118.086C294.668,118.086 299.145,122.563 299.145,128.086" style="fill:rgb(148,87,177);fill-rule:nonzero;"/>
                        </g>
                    </g>
                </g>
                <g>
                    <g>
                        <clipPath id="_clip37">
                            <path d="M495,250C495,385.309 385.309,495 250,495C114.691,495 5,385.309 5,250C5,114.691 114.691,5 250,5C385.309,5 495,114.691 495,250"/>
                        </clipPath>
                        <g clip-path="url(#_clip37)">
                            <path d="M250,390L270.465,323.059" style="fill:none;fill-rule:nonzero;stroke:rgb(254,254,254);stroke-width:8px;"/>
                        </g>
                    </g>
                </g>
                <g>
                    <g>
                        <clipPath id="_clip38">
                            <path d="M495,250C495,385.309 385.309,495 250,495C114.691,495 5,385.309 5,250C5,114.691 114.691,5 250,5C385.309,5 495,114.691 495,250"/>
                        </clipPath>
                        <g clip-path="url(#_clip38)">
                            <path d="M280.465,323.059C280.465,328.582 275.988,333.059 270.465,333.059C264.941,333.059 260.465,328.582 260.465,323.059C260.465,317.535 264.941,313.059 270.465,313.059C275.988,313.059 280.465,317.535 280.465,323.059" style="fill:rgb(148,87,177);fill-rule:nonzero;"/>
                            <path d="M280.465,323.059C280.465,328.582 275.988,333.059 270.465,333.059C264.941,333.059 260.465,328.582 260.465,323.059C260.465,317.535 264.941,313.059 270.465,313.059C275.988,313.059 280.465,317.535 280.465,323.059" style="fill:rgb(202,59,51);fill-rule:nonzero;"/>
                        </g>
                    </g>
                </g>
                <g>
                    <clipPath id="_clip39">
                        <rect x="266" y="249" width="9" height="79"/>
                    </clipPath>
                    <g clip-path="url(#_clip39)">
                        <g>
                            <clipPath id="_clip40">
                                <path d="M495,250C495,385.309 385.309,495 250,495C114.691,495 5,385.309 5,250C5,114.691 114.691,5 250,5C385.309,5 495,114.691 495,250"/>
                            </clipPath>
                            <g clip-path="url(#_clip40)">
                                <path d="M270.465,323.059L270.465,253.059" style="fill:none;fill-rule:nonzero;stroke:rgb(254,254,254);stroke-width:8px;"/>
                            </g>
                        </g>
                    </g>
                </g>
                <g>
                    <g>
                        <clipPath id="_clip41">
                            <path d="M495,250C495,385.309 385.309,495 250,495C114.691,495 5,385.309 5,250C5,114.691 114.691,5 250,5C385.309,5 495,114.691 495,250"/>
                        </clipPath>
                        <g clip-path="url(#_clip41)">
                            <path d="M280.465,253.059C280.465,258.582 275.988,263.059 270.465,263.059C264.941,263.059 260.465,258.582 260.465,253.059C260.465,247.535 264.941,243.059 270.465,243.059C275.988,243.059 280.465,247.535 280.465,253.059" style="fill:rgb(148,87,177);fill-rule:nonzero;"/>
                            <path d="M280.465,253.059C280.465,258.582 275.988,263.059 270.465,263.059C264.941,263.059 260.465,258.582 260.465,253.059C260.465,247.535 264.941,243.059 270.465,243.059C275.988,243.059 280.465,247.535 280.465,253.059" style="fill:rgb(202,59,51);fill-rule:nonzero;"/>
                        </g>
                    </g>
                </g>
                <g>
                    <g>
                        <clipPath id="_clip42">
                            <path d="M495,250C495,385.309 385.309,495 250,495C114.691,495 5,385.309 5,250C5,114.691 114.691,5 250,5C385.309,5 495,114.691 495,250"/>
                        </clipPath>
                        <g clip-path="url(#_clip42)">
                            <path d="M270.465,253.059L250,186.117" style="fill:none;fill-rule:nonzero;stroke:rgb(254,254,254);stroke-width:8px;"/>
                        </g>
                    </g>
                </g>
                <g>
                    <g>
                        <clipPath id="_clip43">
                            <path d="M495,250C495,385.309 385.309,495 250,495C114.691,495 5,385.309 5,250C5,114.691 114.691,5 250,5C385.309,5 495,114.691 495,250"/>
                        </clipPath>
                        <g clip-path="url(#_clip43)">
                            <path d="M260,186.117C260,191.641 255.523,196.117 250,196.117C244.477,196.117 240,191.641 240,186.117C240,180.594 244.477,176.117 250,176.117C255.523,176.117 260,180.594 260,186.117" style="fill:rgb(202,59,51);fill-rule:nonzero;"/>
                            <path d="M260,186.117C260,191.641 255.523,196.117 250,196.117C244.477,196.117 240,191.641 240,186.117C240,180.594 244.477,176.117 250,176.117C255.523,176.117 260,180.594 260,186.117" style="fill:rgb(56,151,37);fill-rule:nonzero;"/>
                        </g>
                    </g>
                </g>
                <g>
                    <g>
                        <clipPath id="_clip44">
                            <path d="M495,250C495,385.309 385.309,495 250,495C114.691,495 5,385.309 5,250C5,114.691 114.691,5 250,5C385.309,5 495,114.691 495,250"/>
                        </clipPath>
                        <g clip-path="url(#_clip44)">
                            <path d="M250,186.117L210.855,128.086" style="fill:none;fill-rule:nonzero;stroke:rgb(254,254,254);stroke-width:8px;"/>
                        </g>
                    </g>
                </g>
                <g>
                    <g>
                        <clipPath id="_clip45">
                            <path d="M495,250C495,385.309 385.309,495 250,495C114.691,495 5,385.309 5,250C5,114.691 114.691,5 250,5C385.309,5 495,114.691 495,250"/>
                        </clipPath>
                        <g clip-path="url(#_clip45)">
                            <path d="M220.855,128.086C220.855,133.609 216.379,138.086 210.855,138.086C205.332,138.086 200.855,133.609 200.855,128.086C200.855,122.563 205.332,118.086 210.855,118.086C216.379,118.086 220.855,122.563 220.855,128.086" style="fill:rgb(148,87,177);fill-rule:nonzero;"/>
                            <path d="M220.855,128.086C220.855,133.609 216.379,138.086 210.855,138.086C205.332,138.086 200.855,133.609 200.855,128.086C200.855,122.563 205.332,118.086 210.855,118.086C216.379,118.086 220.855,122.563 220.855,128.086" style="fill:rgb(56,151,37);fill-rule:nonzero;"/>
                        </g>
                    </g>
                </g>
                <g>
                    <clipPath id="_clip46">
                        <rect x="246" y="112" width="8" height="79"/>
                    </clipPath>
                    <g clip-path="url(#_clip46)">
                        <g>
                            <clipPath id="_clip47">
                                <path d="M495,250C495,385.309 385.309,495 250,495C114.691,495 5,385.309 5,250C5,114.691 114.691,5 250,5C385.309,5 495,114.691 495,250"/>
                            </clipPath>
                            <g clip-path="url(#_clip47)">
                                <path d="M250,186.117L250,116.117" style="fill:none;fill-rule:nonzero;stroke:rgb(254,254,254);stroke-width:8px;"/>
                            </g>
                        </g>
                    </g>
                </g>
                <g>
                    <g>
                        <clipPath id="_clip48">
                            <path d="M495,250C495,385.309 385.309,495 250,495C114.691,495 5,385.309 5,250C5,114.691 114.691,5 250,5C385.309,5 495,114.691 495,250"/>
                        </clipPath>
                        <g clip-path="url(#_clip48)">
                            <path d="M260,116.117C260,121.641 255.523,126.117 250,126.117C244.477,126.117 240,121.641 240,116.117C240,110.594 244.477,106.117 250,106.117C255.523,106.117 260,110.594 260,116.117" style="fill:rgb(56,151,37);fill-rule:nonzero;"/>
                            <path d="M260,116.117C260,121.641 255.523,126.117 250,126.117C244.477,126.117 240,121.641 240,116.117C240,110.594 244.477,106.117 250,106.117C255.523,106.117 260,110.594 260,116.117" style="fill:rgb(148,87,177);fill-rule:nonzero;"/>
                        </g>
                    </g>
                </g>
                <g>
                    <g>
                        <clipPath id="_clip49">
                            <path d="M495,250C495,385.309 385.309,495 250,495C114.691,495 5,385.309 5,250C5,114.691 114.691,5 250,5C385.309,5 495,114.691 495,250"/>
                        </clipPath>
                        <g clip-path="url(#_clip49)">
                            <path d="M270.465,253.059L290.934,186.117" style="fill:none;fill-rule:nonzero;stroke:rgb(254,254,254);stroke-width:8px;"/>
                        </g>
                    </g>
                </g>
                <g>
                    <g>
                        <clipPath id="_clip50">
                            <path d="M495,250C495,385.309 385.309,495 250,495C114.691,495 5,385.309 5,250C5,114.691 114.691,5 250,5C385.309,5 495,114.691 495,250"/>
                        </clipPath>
                        <g clip-path="url(#_clip50)">
                            <path d="M300.934,186.117C300.934,191.641 296.453,196.117 290.934,196.117C285.41,196.117 280.934,191.641 280.934,186.117C280.934,180.594 285.41,176.117 290.934,176.117C296.453,176.117 300.934,180.594 300.934,186.117" style="fill:rgb(202,59,51);fill-rule:nonzero;"/>
                            <path d="M300.934,186.117C300.934,191.641 296.453,196.117 290.934,196.117C285.41,196.117 280.934,191.641 280.934,186.117C280.934,180.594 285.41,176.117 290.934,176.117C296.453,176.117 300.934,180.594 300.934,186.117" style="fill:rgb(56,151,37);fill-rule:nonzero;"/>
                        </g>
                    </g>
                </g>
                <g>
                    <clipPath id="_clip51">
                        <rect x="286" y="112" width="9" height="79"/>
                    </clipPath>
                    <g clip-path="url(#_clip51)">
                        <g>
                            <clipPath id="_clip52">
                                <path d="M495,250C495,385.309 385.309,495 250,495C114.691,495 5,385.309 5,250C5,114.691 114.691,5 250,5C385.309,5 495,114.691 495,250"/>
                            </clipPath>
                            <g clip-path="url(#_clip52)">
                                <path d="M290.934,186.117L290.934,116.117" style="fill:none;fill-rule:nonzero;stroke:rgb(254,254,254);stroke-width:8px;"/>
                            </g>
                        </g>
                    </g>
                </g>
                <g>
                    <g>
                        <clipPath id="_clip53">
                            <path d="M495,250C495,385.309 385.309,495 250,495C114.691,495 5,385.309 5,250C5,114.691 114.691,5 250,5C385.309,5 495,114.691 495,250"/>
                        </clipPath>
                        <g clip-path="url(#_clip53)">
                            <path d="M300.934,116.117C300.934,121.641 296.453,126.117 290.934,126.117C285.41,126.117 280.934,121.641 280.934,116.117C280.934,110.594 285.41,106.117 290.934,106.117C296.453,106.117 300.934,110.594 300.934,116.117" style="fill:rgb(56,151,37);fill-rule:nonzero;"/>
                            <path d="M300.934,116.117C300.934,121.641 296.453,126.117 290.934,126.117C285.41,126.117 280.934,121.641 280.934,116.117C280.934,110.594 285.41,106.117 290.934,106.117C296.453,106.117 300.934,110.594 300.934,116.117" style="fill:rgb(56,151,37);fill-rule:nonzero;"/>
                        </g>
                    </g>
                </g>
                <g>
                    <g>
                        <clipPath id="_clip54">
                            <path d="M495,250C495,385.309 385.309,495 250,495C114.691,495 5,385.309 5,250C5,114.691 114.691,5 250,5C385.309,5 495,114.691 495,250"/>
                        </clipPath>
                        <g clip-path="url(#_clip54)">
                            <path d="M290.934,186.117L330.074,128.086" style="fill:none;fill-rule:nonzero;stroke:rgb(254,254,254);stroke-width:8px;"/>
                        </g>
                    </g>
                </g>
                <g>
                    <g>
                        <clipPath id="_clip55">
                            <path d="M495,250C495,385.309 385.309,495 250,495C114.691,495 5,385.309 5,250C5,114.691 114.691,5 250,5C385.309,5 495,114.691 495,250"/>
                        </clipPath>
                        <g clip-path="url(#_clip55)">
                            <path d="M340.074,128.086C340.074,133.609 335.598,138.086 330.074,138.086C324.551,138.086 320.074,133.609 320.074,128.086C320.074,122.563 324.551,118.086 330.074,118.086C335.598,118.086 340.074,122.563 340.074,128.086" style="fill:rgb(202,59,51);fill-rule:nonzero;"/>
                            <path d="M340.074,128.086C340.074,133.609 335.598,138.086 330.074,138.086C324.551,138.086 320.074,133.609 320.074,128.086C320.074,122.563 324.551,118.086 330.074,118.086C335.598,118.086 340.074,122.563 340.074,128.086" style="fill:rgb(56,151,37);fill-rule:nonzero;"/>
                        </g>
                    </g>
                </g>
                <g>
                    <g>
                        <clipPath id="_clip56">
                            <path d="M495,250C495,385.309 385.309,495 250,495C114.691,495 5,385.309 5,250C5,114.691 114.691,5 250,5C385.309,5 495,114.691 495,250"/>
                        </clipPath>
                        <g clip-path="url(#_clip56)">
                            <path d="M270.465,323.059L309.609,265.027" style="fill:none;fill-rule:nonzero;stroke:rgb(254,254,254);stroke-width:8px;"/>
                        </g>
                    </g>
                </g>
                <g>
                    <g>
                        <clipPath id="_clip57">
                            <path d="M495,250C495,385.309 385.309,495 250,495C114.691,495 5,385.309 5,250C5,114.691 114.691,5 250,5C385.309,5 495,114.691 495,250"/>
                        </clipPath>
                        <g clip-path="url(#_clip57)">
                            <path d="M319.609,265.027C319.609,270.551 315.133,275.027 309.609,275.027C304.086,275.027 299.609,270.551 299.609,265.027C299.609,259.504 304.086,255.027 309.609,255.027C315.133,255.027 319.609,259.504 319.609,265.027" style="fill:rgb(148,87,177);fill-rule:nonzero;"/>
                            <path d="M319.609,265.027C319.609,270.551 315.133,275.027 309.609,275.027C304.086,275.027 299.609,270.551 299.609,265.027C299.609,259.504 304.086,255.027 309.609,255.027C315.133,255.027 319.609,259.504 319.609,265.027" style="fill:rgb(202,59,51);fill-rule:nonzero;"/>
                        </g>
                    </g>
                </g>
                <g>
                    <g>
                        <clipPath id="_clip58">
                            <path d="M495,250C495,385.309 385.309,495 250,495C114.691,495 5,385.309 5,250C5,114.691 114.691,5 250,5C385.309,5 495,114.691 495,250"/>
                        </clipPath>
                        <g clip-path="url(#_clip58)">
                            <path d="M309.609,265.027L330.074,198.086" style="fill:none;fill-rule:nonzero;stroke:rgb(254,254,254);stroke-width:8px;"/>
                        </g>
                    </g>
                </g>
                <g>
                    <g>
                        <clipPath id="_clip59">
                            <path d="M495,250C495,385.309 385.309,495 250,495C114.691,495 5,385.309 5,250C5,114.691 114.691,5 250,5C385.309,5 495,114.691 495,250"/>
                        </clipPath>
                        <g clip-path="url(#_clip59)">
                            <path d="M340.074,198.086C340.074,203.609 335.598,208.086 330.074,208.086C324.551,208.086 320.074,203.609 320.074,198.086C320.074,192.563 324.551,188.086 330.074,188.086C335.598,188.086 340.074,192.563 340.074,198.086" style="fill:rgb(202,59,51);fill-rule:nonzero;"/>
                            <path d="M340.074,198.086C340.074,203.609 335.598,208.086 330.074,208.086C324.551,208.086 320.074,203.609 320.074,198.086C320.074,192.563 324.551,188.086 330.074,188.086C335.598,188.086 340.074,192.563 340.074,198.086" style="fill:rgb(56,151,37);fill-rule:nonzero;"/>
                        </g>
                    </g>
                </g>
                <g>
                    <clipPath id="_clip60">
                        <rect x="326" y="124" width="9" height="79"/>
                    </clipPath>
                    <g clip-path="url(#_clip60)">
                        <g>
                            <clipPath id="_clip61">
                                <path d="M495,250C495,385.309 385.309,495 250,495C114.691,495 5,385.309 5,250C5,114.691 114.691,5 250,5C385.309,5 495,114.691 495,250"/>
                            </clipPath>
                            <g clip-path="url(#_clip61)">
                                <path d="M330.074,198.086L330.074,128.086" style="fill:none;fill-rule:nonzero;stroke:rgb(254,254,254);stroke-width:8px;"/>
                            </g>
                        </g>
                    </g>
                </g>
                <g>
                    <g>
                        <clipPath id="_clip62">
                            <path d="M495,250C495,385.309 385.309,495 250,495C114.691,495 5,385.309 5,250C5,114.691 114.691,5 250,5C385.309,5 495,114.691 495,250"/>
                        </clipPath>
                        <g clip-path="url(#_clip62)">
                            <path d="M340.074,128.086C340.074,133.609 335.598,138.086 330.074,138.086C324.551,138.086 320.074,133.609 320.074,128.086C320.074,122.563 324.551,118.086 330.074,118.086C335.598,118.086 340.074,122.563 340.074,128.086" style="fill:rgb(202,59,51);fill-rule:nonzero;"/>
                            <path d="M340.074,128.086C340.074,133.609 335.598,138.086 330.074,138.086C324.551,138.086 320.074,133.609 320.074,128.086C320.074,122.563 324.551,118.086 330.074,118.086C335.598,118.086 340.074,122.563 340.074,128.086" style="fill:rgb(202,59,51);fill-rule:nonzero;"/>
                        </g>
                    </g>
                </g>
                <g>
                    <g>
                        <clipPath id="_clip63">
                            <path d="M495,250C495,385.309 385.309,495 250,495C114.691,495 5,385.309 5,250C5,114.691 114.691,5 250,5C385.309,5 495,114.691 495,250"/>
                        </clipPath>
                        <g clip-path="url(#_clip63)">
                            <path d="M330.074,198.086L369.219,140.051" style="fill:none;fill-rule:nonzero;stroke:rgb(254,254,254);stroke-width:8px;"/>
                        </g>
                    </g>
                </g>
                <g>
                    <g>
                        <clipPath id="_clip64">
                            <path d="M495,250C495,385.309 385.309,495 250,495C114.691,495 5,385.309 5,250C5,114.691 114.691,5 250,5C385.309,5 495,114.691 495,250"/>
                        </clipPath>
                        <g clip-path="url(#_clip64)">
                            <path d="M379.219,140.051C379.219,145.574 374.742,150.051 369.219,150.051C363.695,150.051 359.219,145.574 359.219,140.051C359.219,134.527 363.695,130.051 369.219,130.051C374.742,130.051 379.219,134.527 379.219,140.051" style="fill:rgb(148,87,177);fill-rule:nonzero;"/>
                            <path d="M379.219,140.051C379.219,145.574 374.742,150.051 369.219,150.051C363.695,150.051 359.219,145.574 359.219,140.051C359.219,134.527 363.695,130.051 369.219,130.051C374.742,130.051 379.219,134.527 379.219,140.051" style="fill:rgb(56,151,37);fill-rule:nonzero;"/>
                        </g>
                    </g>
                </g>
                <g>
                    <g>
                        <clipPath id="_clip65">
                            <path d="M495,250C495,385.309 385.309,495 250,495C114.691,495 5,385.309 5,250C5,114.691 114.691,5 250,5C385.309,5 495,114.691 495,250"/>
                        </clipPath>
                        <g clip-path="url(#_clip65)">
                            <path d="M309.609,265.027L364.008,220.973" style="fill:none;fill-rule:nonzero;stroke:rgb(254,254,254);stroke-width:8px;"/>
                        </g>
                    </g>
                </g>
                <g>
                    <g>
                        <clipPath id="_clip66">
                            <path d="M495,250C495,385.309 385.309,495 250,495C114.691,495 5,385.309 5,250C5,114.691 114.691,5 250,5C385.309,5 495,114.691 495,250"/>
                        </clipPath>
                        <g clip-path="url(#_clip66)">
                            <path d="M374.008,220.973C374.008,226.496 369.531,230.973 364.008,230.973C358.488,230.973 354.008,226.496 354.008,220.973C354.008,215.449 358.488,210.973 364.008,210.973C369.531,210.973 374.008,215.449 374.008,220.973" style="fill:rgb(202,59,51);fill-rule:nonzero;"/>
                            <path d="M374.008,220.973C374.008,226.496 369.531,230.973 364.008,230.973C358.488,230.973 354.008,226.496 354.008,220.973C354.008,215.449 358.488,210.973 364.008,210.973C369.531,210.973 374.008,215.449 374.008,220.973" style="fill:rgb(202,59,51);fill-rule:nonzero;"/>
                        </g>
                    </g>
                </g>
                <g>
                    <g>
                        <clipPath id="_clip67">
                            <path d="M495,250C495,385.309 385.309,495 250,495C114.691,495 5,385.309 5,250C5,114.691 114.691,5 250,5C385.309,5 495,114.691 495,250"/>
                        </clipPath>
                        <g clip-path="url(#_clip67)">
                            <path d="M364.008,220.973L403.152,162.941" style="fill:none;fill-rule:nonzero;stroke:rgb(254,254,254);stroke-width:8px;"/>
                        </g>
                    </g>
                </g>
                <g>
                    <g>
                        <clipPath id="_clip68">
                            <path d="M495,250C495,385.309 385.309,495 250,495C114.691,495 5,385.309 5,250C5,114.691 114.691,5 250,5C385.309,5 495,114.691 495,250"/>
                        </clipPath>
                        <g clip-path="url(#_clip68)">
                            <path d="M413.152,162.941C413.152,168.465 408.676,172.941 403.152,172.941C397.629,172.941 393.152,168.465 393.152,162.941C393.152,157.418 397.629,152.941 403.152,152.941C408.676,152.941 413.152,157.418 413.152,162.941" style="fill:rgb(202,59,51);fill-rule:nonzero;"/>
                            <path d="M413.152,162.941C413.152,168.465 408.676,172.941 403.152,172.941C397.629,172.941 393.152,168.465 393.152,162.941C393.152,157.418 397.629,152.941 403.152,152.941C408.676,152.941 413.152,157.418 413.152,162.941" style="fill:rgb(148,87,177);fill-rule:nonzero;"/>
                        </g>
                    </g>
                </g>
                <g>
                    <g>
                        <clipPath id="_clip69">
                            <path d="M495,250C495,385.309 385.309,495 250,495C114.691,495 5,385.309 5,250C5,114.691 114.691,5 250,5C385.309,5 495,114.691 495,250"/>
                        </clipPath>
                        <g clip-path="url(#_clip69)">
                            <path d="M364.008,220.973L428.914,194.75" style="fill:none;fill-rule:nonzero;stroke:rgb(254,254,254);stroke-width:8px;"/>
                        </g>
                    </g>
                </g>
                <g>
                    <g>
                        <clipPath id="_clip70">
                            <path d="M495,250C495,385.309 385.309,495 250,495C114.691,495 5,385.309 5,250C5,114.691 114.691,5 250,5C385.309,5 495,114.691 495,250"/>
                        </clipPath>
                        <g clip-path="url(#_clip70)">
                            <path d="M438.914,194.75C438.914,200.273 434.434,204.75 428.914,204.75C423.391,204.75 418.914,200.273 418.914,194.75C418.914,189.227 423.391,184.75 428.914,184.75C434.434,184.75 438.914,189.227 438.914,194.75" style="fill:rgb(148,87,177);fill-rule:nonzero;"/>
                        </g>
                    </g>
                </g>
            </g>
        </g>
    </g>
    <g transform="matrix(3.63029,0,0,3.63029,-910.021,-864.917)">
        <text x="295.193px" y="267.664px" style="font-family:'YoungSerif-Regular', 'YoungSerif';font-weight:600;font-size:25.21px;">L<tspan x="312.94px 322.066px 338.301px 353.326px 366.183px 383.779px 408.787px 423.887px 437.601px 450.458px " y="267.664px 267.664px 267.664px 267.664px 267.664px 267.664px 267.664px 267.664px 267.664px 267.664px ">indenmayer</tspan></text>
    </g>
</svg>
